<svg width="360" height="360" viewBox="0 0 360 360" fill="none" xmlns="http://www.w3.org/2000/svg">
<rect width="360" height="360" rx="180" fill="black"/>
<path fill-rule="evenodd" clip-rule="evenodd" d="M178.891 199.724V304.808V323.359L194.851 313.904L304.816 248.762L310 245.692V239.667V130.17V126.959L288.856 138.694V233.641L200.035 286.258V190.799V187.989L178.891 199.724Z" fill="#2A458C"/>
<path fill-rule="evenodd" clip-rule="evenodd" d="M185.114 40.3926L179.693 37L174.171 40.226L66.0199 103.415L50 112.775L66.2191 121.785L174.371 181.867L179.512 184.723L184.65 181.86L291.322 122.426L307.655 113.326L291.438 104.021L235.423 71.8799L185.114 40.3926ZM179.497 160.527L92.7064 112.312L179.317 61.7086L198.233 73.5474L146.785 102.615L167.892 114.944L218.599 86.2943L224.377 89.9106L224.549 90.018L224.725 90.1188L264.698 113.056L179.497 160.527Z" fill="#2DBE5F"/>
<path fill-rule="evenodd" clip-rule="evenodd" d="M50.0068 123.226L65.6381 131.744L171.42 189.394V213.474L166.843 210.98L71.1928 158.852V192.375V244.28L171.437 298.911V322.991L166.885 320.511L55.5616 259.841L50.0486 256.837V250.558V244.586H50.0069L50.0069 234.014L50.0068 141.027L50.0068 123.226Z" fill="#2B458C"/>
<path d="M130.14 225.823C129.287 233.047 122.738 238.212 115.513 237.358C108.289 236.504 103.124 229.955 103.978 222.731C104.832 215.506 111.313 210.91 118.538 211.764C125.762 212.618 130.994 218.598 130.14 225.823Z" fill="url(#paint0_linear_1738_1587)"/>
<defs>
<linearGradient id="paint0_linear_1738_1587" x1="118.605" y1="211.195" x2="115.513" y2="237.358" gradientUnits="userSpaceOnUse">
<stop stop-color="#E28E8E"/>
<stop offset="1" stop-color="#F60000"/>
</linearGradient>
</defs>
</svg>
